<svg width="50" height="50" viewBox="0 0 50 50" fill="none" xmlns="http://www.w3.org/2000/svg">
<path fill-rule="evenodd" clip-rule="evenodd" d="M0 14.1602V7.16016C0 5.22716 0.683417 3.57724 2.05025 2.21041C3.41709 0.843574 5.067 0.160156 7 0.160156H42.69C44.623 0.160156 46.2729 0.843574 47.6397 2.21041C49.0066 3.57724 49.69 5.22716 49.69 7.16016V42.8502C49.69 44.7831 49.0066 46.4331 47.6397 47.7999C46.2729 49.1667 44.623 49.8502 42.69 49.8502H7C5.067 49.8502 3.41709 49.1667 2.05025 47.7999C0.683417 46.4331 0 44.7831 0 42.8502V14.1602Z" fill="#F5F6FA"/>
<path fill-rule="evenodd" clip-rule="evenodd" d="M25 40C17.268 40 11 33.732 11 26C11 18.268 17.268 12 25 12C32.732 12 39 18.268 39 26C38.9893 33.728 32.7273 39.9897 24.9996 40L25 40ZM36.8074 27.9163C34.3901 27.2134 31.8499 27.0391 29.3594 27.4053C30.3759 30.1758 31.1534 33.0282 31.6834 35.9313C34.4243 34.0807 36.2795 31.1805 36.8104 27.9163L36.8074 27.9163ZM29.6722 37.0249C29.1091 33.9293 28.2536 30.894 27.1172 27.96L27.0402 27.9829C20.2852 30.3339 17.8702 35.0119 17.6602 35.4499C21.0765 38.1168 25.6707 38.7206 29.6602 37.0269L29.6722 37.0249ZM16.1168 34.0151C18.37 30.3593 21.7972 27.5765 25.8378 26.1222C25.9948 26.0701 26.1528 26.0221 26.3098 25.9821C26.0098 25.3001 25.6798 24.6211 25.3388 23.9521C21.3428 25.0954 17.2052 25.6678 13.0488 25.6521L13.0488 26.0161C13.0459 28.971 14.141 31.8221 16.1214 34.0157L16.1168 34.0151ZM13.293 23.5683C17.0252 23.5497 20.7401 23.0605 24.35 22.1123C22.9973 19.7305 21.5174 17.4231 19.9169 15.2002C16.5221 16.7986 14.0715 19.8943 13.295 23.5653L13.293 23.5683ZM22.1992 14.3943C23.8359 16.6284 25.3254 18.9667 26.6582 21.3943C29.1192 20.5863 31.2955 19.0869 32.9272 17.0753C30.007 14.477 25.9991 13.4739 22.1992 14.3903L22.1992 14.3943ZM34.2561 18.457C32.4761 20.5801 30.1749 22.2042 27.5781 23.17C27.8581 23.742 28.1261 24.319 28.3711 24.904C28.4641 25.114 28.5461 25.324 28.6281 25.522C31.4084 25.2339 34.2162 25.3636 36.9581 25.907C36.9407 23.1903 35.9892 20.5623 34.2632 18.4641L34.2561 18.457Z" fill="#AAB0B7"/>
</svg>
