<svg width="51" height="50" viewBox="0 0 51 50" fill="none" xmlns="http://www.w3.org/2000/svg">
<path fill-rule="evenodd" clip-rule="evenodd" d="M0.869141 16.1602V8.16016C0.869141 5.95102 1.65019 4.0654 3.21229 2.5033C4.77438 0.941205 6.66 0.160156 8.86914 0.160156H42.5591C44.7683 0.160156 46.6539 0.941205 48.216 2.5033C49.7781 4.0654 50.5591 5.95102 50.5591 8.16016V41.8502C50.5591 44.0593 49.7781 45.9449 48.216 47.507C46.6539 49.0691 44.7683 49.8502 42.5591 49.8502H8.86914C6.66 49.8502 4.77438 49.0691 3.21229 47.507C1.65019 45.9449 0.869141 44.0593 0.869141 41.8502V16.1602Z" fill="#F5F6FA"/>
<mask id="mask0_24_343" style="mask-type:luminance" maskUnits="userSpaceOnUse" x="12" y="11" width="28" height="28">
<rect x="12" y="11" width="28" height="28" fill="white"/>
</mask>
<g mask="url(#mask0_24_343)">
<path fill-rule="evenodd" clip-rule="evenodd" d="M39.946 16.3301C38.8962 16.7906 37.7842 17.0938 36.646 17.2301C37.8434 16.5106 38.7399 15.3821 39.17 14.0531C38.0386 14.7117 36.8059 15.1783 35.522 15.4341C33.9117 13.7183 31.417 13.1595 29.2287 14.0245C27.0403 14.8896 25.6019 17.003 25.6 19.3561C25.6 19.798 25.6497 20.2378 25.7482 20.6678C21.1324 20.4469 16.8288 18.2721 13.913 14.6871C13.3984 15.5617 13.1299 16.5593 13.136 17.5741C13.1343 19.4943 14.0924 21.2881 15.6892 22.3542C14.7776 22.3252 13.886 22.0786 13.089 21.6351L13.089 21.7061C13.0874 24.4392 15.0114 26.7945 17.6895 27.3382C16.8475 27.5654 15.965 27.5995 15.108 27.4381C15.8643 29.7768 18.0215 31.3777 20.479 31.4241C18.4484 33.0176 15.9412 33.8826 13.36 33.8801C12.9056 33.8791 12.4515 33.8528 12 33.8011C14.632 35.4845 17.6917 36.3775 20.816 36.3741C31.379 36.3741 37.148 27.6291 37.148 20.0571C37.148 19.8131 37.148 19.5671 37.131 19.3221C38.2573 18.5121 39.229 17.5065 40 16.3531L39.946 16.3301Z" fill="#AAB0B7"/>
</g>
</svg>
