<svg width="50" height="50" viewBox="0 0 50 50" fill="none" xmlns="http://www.w3.org/2000/svg">
<path fill-rule="evenodd" clip-rule="evenodd" d="M0.310547 14.1602V7.16016C0.310547 5.22716 0.993964 3.57724 2.3608 2.21041C3.72763 0.843574 5.37755 0.160156 7.31055 0.160156H43.0005C44.9335 0.160156 46.5835 0.843574 47.9503 2.21041C49.3171 3.57724 50.0005 5.22716 50.0005 7.16016V42.8502C50.0005 44.7831 49.3171 46.4331 47.9503 47.7999C46.5835 49.1667 44.9335 49.8502 43.0005 49.8502H7.31055C5.37755 49.8502 3.72763 49.1667 2.3608 47.7999C0.993964 46.4331 0.310547 44.7831 0.310547 42.8502V14.1602Z" fill="#F5F6FA"/>
<path fill-rule="evenodd" clip-rule="evenodd" d="M38.4063 18.0521C38.2443 17.4655 37.9344 16.9304 37.5063 16.4981C37.0808 16.0675 36.5509 15.7546 35.9683 15.5901C33.7863 14.9991 25.0053 14.9991 25.0053 14.9991C25.0053 14.9991 16.2493 14.9841 14.0453 15.5911C13.4627 15.7556 12.9328 16.0685 12.5073 16.4991C12.0792 16.9314 11.7693 17.4665 11.6073 18.0531C11.1937 20.3107 10.9898 22.6018 10.9983 24.8971C10.9921 27.1828 11.1966 29.4648 11.6092 31.7135C11.7711 32.3002 12.0811 32.8355 12.5093 33.2681C12.9348 33.6986 13.4647 34.0115 14.0473 34.1761C16.2263 34.7681 25.0103 34.7681 25.0103 34.7681C25.0103 34.7681 33.7673 34.7681 35.9733 34.1761C36.5559 34.0115 37.0858 33.6986 37.5113 33.2681C37.9394 32.8357 38.2493 32.3006 38.4113 31.7141C38.8146 29.4641 39.0097 27.1818 38.9943 24.8961C39.0097 22.6018 38.8129 20.3107 38.4064 18.0523L38.4063 18.0521ZM22.2053 29.1291V20.6491L29.5133 24.8961L22.2053 29.1291Z" fill="#AAB0B7"/>
</svg>
